<?xml version="1.0" encoding="utf-8"?>
<!-- Generator: Adobe Illustrator 19.0.0, SVG Export Plug-In . SVG Version: 6.00 Build 0)  -->
<svg version="1.1" id="Layer_1" xmlns="http://www.w3.org/2000/svg" xmlns:xlink="http://www.w3.org/1999/xlink" x="0px" y="0px"
	 viewBox="-74 10 73 77" style="enable-background:new -74 10 73 77;" xml:space="preserve">
<style type="text/css">
	.st0{fill:#007AFF;}
	.st1{fill:#FFFFFF;}
</style>
<g id="XMLID_8_">
	<path id="XMLID_14_" class="st0" d="M-36.8,46.3c0.5-0.7,1-1.5,1.6-2.3c2.5-3.6,5.1-7.2,7.6-10.8c0.8-1.2,1.6-2.3,2.4-3.5
		c0.2-0.2,0.3-0.3,0.6-0.3c5.9,0,11.9,0,17.8,0c0.4,0,0.5,0.1,0.5,0.5c0,3.8,0,7.5,0,11.3c0,0.4-0.1,0.5-0.5,0.5c-1,0-2,0-3,0
		c-0.1,0-0.2,0-0.4,0c0,9.2,0,18.3,0,27.4c0.1,0,0.2,0,0.3,0c1,0,2,0,3,0c0.4,0,0.5,0.1,0.5,0.5c0,3.8,0,7.5,0,11.3
		c0,0.4-0.1,0.5-0.5,0.5c-5.1,0-10.3,0-15.4,0c-0.5,0-0.5-0.1-0.5-0.6c0-4.2,0-8.4,0-12.6c0-0.1,0-0.2,0-0.3c-0.1,0-0.2,0-0.3,0
		c-4,0-7.9,0-11.9,0c-0.4,0-0.7-0.2-0.9-0.5c-0.4-0.6-0.8-1.1-1.2-1.7c-0.5,0.6-0.9,1.3-1.3,1.9c-2.2,3.1-4.4,6.3-6.6,9.4
		c-0.9,1.4-1.9,2.7-2.8,4c-0.2,0.2-0.3,0.3-0.5,0.3c-4.1,0-8.2,0-12.3,0c-0.2,0-0.4,0-0.5-0.2c-0.1-0.2,0-0.4,0.1-0.5
		c2.7-3.8,5.4-7.7,8.1-11.5c3-4.2,6-8.5,9-12.8c0.1-0.1,0.1-0.1,0.1-0.2c-2.6-3.7-5.3-7.5-7.9-11.2h-0.1c0,0.1,0,0.2,0,0.2
		c0,6.3,0,12.7,0,19.1c0,0.9,0,1.9,0,2.9c0,0.5-0.3,0.8-0.8,0.8c-5.1,0-10.2,0-15.3,0c-0.6,0-0.8-0.3-0.8-0.8c0-3.9,0-7.8,0-11.7
		c0-0.5,0.3-0.8,0.8-0.8c0.9,0,1.9,0,2.8,0c0-8.7,0-17.4,0-26.1c-0.1,0-0.3,0-0.4,0c-0.8,0-1.6,0-2.4,0c-0.6,0-0.9-0.3-0.9-0.9
		c0-3.9,0-7.7,0-11.6c0-0.6,0.3-0.8,0.9-0.8c5.1,0,10.2,0,15.2,0c0.6,0,0.9,0.3,0.9,0.8c0,7.3,0,14.6,0,21.8c0,0.1,0,0.2,0,0.3
		c0.1-0.1,0.1-0.1,0.2-0.2c2.5-3.6,5-7.2,7.5-10.7c2.7-3.9,5.4-7.8,8.2-11.7c0.2-0.3,0.5-0.4,0.8-0.4c4,0,8.1,0,12.1,0
		c0.3,0,0.6,0.1,0.8,0.4c0.2,0.5,0.1,0.8-0.1,1.1c-2.7,3.8-5.3,7.6-8,11.4c-2.9,4.2-5.9,8.4-8.8,12.6c-0.2,0.3-0.5,0.6-0.6,0.9
		c-0.1,0.1-0.1,0.2,0,0.3c1,1.5,2,2.9,3,4.3C-36.8,46.3-36.8,46.3-36.8,46.3z M-22.8,45.6c-0.1,0.1-0.1,0.2-0.2,0.2
		c-2.3,3.3-4.7,6.6-7,9.9c-0.1,0.1-0.1,0.2,0,0.3c2.4,3.4,4.7,6.7,7,10c0.1,0.1,0.1,0.1,0.1,0.2l0.1-0.1
		C-22.8,59.4-22.8,52.5-22.8,45.6z"/>
	<path id="XMLID_9_" class="st1" d="M-22.9,15.3c0.3,0,0.6,0.1,0.8,0.4c0.1,0.3,0,0.6-0.2,0.9c-2.7,3.8-5.3,7.6-8,11.4
		c-2.9,4.2-5.9,8.4-8.8,12.6c-0.2,0.3-0.5,0.6-0.6,0.9c-0.1,0.1-0.1,0.2,0,0.3c1,1.5,2,2.9,3,4.3c-0.1,0.2-0.1,0.2-0.1,0.2
		c0.5-0.7,1-1.5,1.6-2.3c2.5-3.6,5.1-7.2,7.6-10.8c0.8-1.2,1.6-2.3,2.4-3.5c0.2-0.2,0.3-0.3,0.6-0.3c5.9,0,11.9,0,17.8,0
		c0.4,0,0.5,0.1,0.5,0.5c0,3.8,0,7.5,0,11.3c0,0.4-0.1,0.5-0.5,0.5c-1,0-2,0-3,0c-0.1,0-0.2,0-0.4,0c0,9.2,0,18.3,0,27.4
		c0.1,0,0.2,0,0.3,0c1,0,2,0,3,0c0.4,0,0.5,0.1,0.5,0.5c0,3.8,0,7.5,0,11.3c0,0.4-0.1,0.5-0.5,0.5c-5.1,0-10.3,0-15.4,0
		c-0.5,0-0.5-0.1-0.5-0.6c0-4.2,0-8.4,0-12.6c0-0.1,0-0.2,0-0.3c-0.1,0-0.2,0-0.3,0c-4,0-7.9,0-11.9,0c-0.4,0-0.7-0.2-0.9-0.5
		c-0.4-0.6-0.8-1.1-1.2-1.7c-0.5,0.6-0.9,1.3-1.3,1.9c-2.2,3.1-4.4,6.3-6.6,9.4c-0.9,1.4-1.9,2.7-2.8,4c-0.2,0.2-0.3,0.3-0.5,0.3
		c-4.1,0-8.2,0-12.3,0c-0.2,0-0.4,0-0.5-0.2c-0.1-0.2,0-0.4,0.1-0.5c2.7-3.8,5.4-7.7,8.1-11.5c3-4.2,6-8.5,9-12.8
		c0.1-0.1,0.1-0.1,0.1-0.2c-2.6-3.7-5.3-7.5-7.9-11.2h-0.1c0,0.1,0,0.2,0,0.2c0,6.3,0,12.7,0,19.1c0,0.9,0,1.9,0,2.9
		c0,0.5-0.3,0.8-0.8,0.8c-5.1,0-10.2,0-15.3,0c-0.6,0-0.8-0.3-0.8-0.8c0-3.9,0-7.8,0-11.7c0-0.5,0.3-0.8,0.8-0.8c0.9,0,1.9,0,2.8,0
		c0-8.7,0-17.4,0-26.1c-0.1,0-0.3,0-0.4,0c-0.8,0-1.6,0-2.4,0c-0.6,0-0.9-0.3-0.9-0.9c0-3.9,0-7.7,0-11.6c0-0.6,0.3-0.8,0.9-0.8
		c5.1,0,10.2,0,15.2,0c0.6,0,0.9,0.3,0.9,0.8c0,7.3,0,14.6,0,21.8c0,0.1,0,0.2,0,0.3c0.1-0.1,0.1-0.1,0.2-0.2
		c2.5-3.6,5-7.2,7.5-10.7c2.7-3.9,5.4-7.8,8.2-11.7c0.2-0.3,0.5-0.4,0.8-0.4C-31,15.3-27,15.3-22.9,15.3 M-22.8,66.3L-22.8,66.3
		c0.1-6.9,0.1-13.8,0.1-20.6c-0.1,0.1-0.1,0.2-0.2,0.2c-2.3,3.3-4.7,6.6-7,9.9c-0.1,0.1-0.1,0.2,0,0.3c2.4,3.4,4.7,6.7,7,10
		C-22.8,66.2-22.8,66.2-22.8,66.3 M-22.9,11.7h-12.2c-1.6,0-2.9,0.7-3.8,2c-1.3,1.9-2.7,3.9-4,5.9c-1.4,1.9-2.7,3.9-4.1,5.8
		c-0.4,0.5-0.7,1-1,1.5V16.2c0-2.6-1.9-4.5-4.6-4.5h-15.3c-2.6,0-4.6,1.9-4.6,4.5v11.6c0,2.4,1.5,4.1,3.7,4.5v18.9
		c-2.1,0.4-3.7,2.1-3.7,4.5v11.7c0,2.6,1.9,4.5,4.5,4.5h8.8c-0.3,0.4-0.6,0.8-0.8,1.2c-1.3,1.9-2.7,3.8-4,5.8c0,0.1-0.1,0.1-0.1,0.1
		c-1.3,1.9-0.6,3.6-0.3,4.2c0.3,0.7,1.4,2.3,3.8,2.3h12.3c1.4,0,2.6-0.6,3.5-1.7l0.1-0.1c0.9-1.4,1.9-2.7,2.9-4.1l5.5-7.9
		c0.6,0.2,1.1,0.3,1.6,0.3h8.5v9c0,2.5,1.7,4.2,4.2,4.2h15.3c2.4,0,4.2-1.8,4.2-4.2V69.8c0-2.3-1.6-4-3.9-4.1V45.5
		c2.3-0.2,3.9-1.8,3.9-4.2V30c0-2.4-1.8-4.2-4.2-4.2h-17.5c1.7-2.4,3.4-4.8,5-7.2c0.1-0.1,0.2-0.2,0.2-0.4c0.7-1.5,0.8-2.9,0.1-4.2
		c0-0.1-0.1-0.1-0.1-0.2C-19.8,12.5-21.3,11.7-22.9,11.7L-22.9,11.7z M-27.3,53.6L-27.3,53.6L-27.3,53.6L-27.3,53.6z"/>
</g>
</svg>
